<svg xmlns="http://www.w3.org/2000/svg" xmlns:xlink="http://www.w3.org/1999/xlink" width="100" height="100" viewBox="0 0 100 100"><g><g transform="translate(50 50) scale(0.69 0.69) rotate(0) translate(-50 -50)" style="fill:#000000"><svg fill="#000000" xmlns="http://www.w3.org/2000/svg" data-name="Layer 1" viewBox="0 0 100 100" x="0px" y="0px"><title>Health Icons</title><path d="M50,89A38,38,0,1,1,79.14,26.61a2,2,0,0,1-3.07,2.57,34,34,0,1,0,7.76,25.14,2,2,0,0,1,4,.39A37.84,37.84,0,0,1,50,89Z"></path><path d="M27.7,42.52a2,2,0,0,1-.17-4,16.75,16.75,0,0,0,10.66-5.09,2,2,0,0,1,2.88,2.77,20.75,20.75,0,0,1-13.2,6.3Z"></path><path d="M71.64,42.52h-.17a20.75,20.75,0,0,1-13.2-6.3,2,2,0,1,1,2.88-2.77,16.76,16.76,0,0,0,10.66,5.09,2,2,0,0,1-.17,4Z"></path><path d="M63,58a7,7,0,1,1,7-7A7,7,0,0,1,63,58Zm0-10a3,3,0,1,0,3,3A3,3,0,0,0,63,48Z"></path><path d="M37,58a7,7,0,1,1,7-7A7,7,0,0,1,37,58Zm0-10a3,3,0,1,0,3,3A3,3,0,0,0,37,48Z"></path><path d="M84,50a8,8,0,0,1-8-8,6,6,0,0,1,.35-2.24c1.16-2.91,5.74-10.48,5.94-10.8a2,2,0,0,1,3.42,0c.19.32,4.78,7.89,5.94,10.8A6,6,0,0,1,92,42,8,8,0,0,1,84,50Zm0-16.08a79,79,0,0,0-3.93,7.32A2.91,2.91,0,0,0,80,42a4,4,0,0,0,8,0,2.89,2.89,0,0,0-.07-.76A78.74,78.74,0,0,0,84,33.92Z"></path><path d="M67,74H33a2,2,0,0,1-2-2V68a6,6,0,0,1,6-6H63a6,6,0,0,1,6,6v4A2,2,0,0,1,67,74ZM35,70H65V68a2,2,0,0,0-2-2H37a2,2,0,0,0-2,2Z"></path></svg></g></g></svg>