<svg xmlns="http://www.w3.org/2000/svg" xmlns:xlink="http://www.w3.org/1999/xlink" width="100" height="100" viewBox="0 0 100 100"><g><g transform="translate(50 50) scale(0.69 0.69) rotate(0) translate(-50 -50)" style="fill:#000000"><svg fill="#000000" xmlns:x="http://ns.adobe.com/Extensibility/1.0/" xmlns:i="http://ns.adobe.com/AdobeIllustrator/10.0/" xmlns:graph="http://ns.adobe.com/Graphs/1.0/" xmlns="http://www.w3.org/2000/svg" xmlns:xlink="http://www.w3.org/1999/xlink" version="1.1" x="0px" y="0px" viewBox="0 0 100 100" style="enable-background:new 0 0 100 100;" xml:space="preserve"><g><g i:extraneous="self"><g><path d="M65.5,40.3c-3.6,0-6.5,2.9-6.5,6.5c0,3.6,2.9,6.5,6.5,6.5c3.6,0,6.5-2.9,6.5-6.5C72.1,43.2,69.1,40.3,65.5,40.3z      M65.5,49.7c-1.6,0-2.9-1.3-2.9-2.9s1.3-2.9,2.9-2.9s2.9,1.3,2.9,2.9S67.2,49.7,65.5,49.7z"></path><path d="M81.5,7.7c-2.1-3.2-5.6-5.2-9.4-5.2c-2.8,0-5.4,1-7.5,2.9c-1.8-1.4-4.1-2.2-6.4-2.2c-4.9,0-9.1,3.4-10.2,8.1     c-4.2,1.5-7.1,5.4-7.1,10c0,5.7,4.5,10.4,10.2,10.6c1.9,3.2,5.4,5.3,9.2,5.3c2.4,0,4.7-0.8,6.6-2.3c2,1.8,4.6,2.7,7.2,2.7     c5.2,0,9.6-3.6,10.8-8.6c3.6-2,5.9-5.8,5.9-10C90.8,13.4,86.8,8.7,81.5,7.7z M82.5,26c-0.6,0.2-1,0.8-1,1.4     c-0.5,3.7-3.7,6.5-7.4,6.5c-2.2,0-4.4-1-5.8-2.8c-0.3-0.4-0.8-0.6-1.4-0.7c0,0,0,0,0,0c-0.5,0-1,0.2-1.3,0.6     c-1.4,1.6-3.3,2.4-5.3,2.4c-2.8,0-5.4-1.7-6.5-4.3c-0.3-0.7-1-1.1-1.8-1.1c-0.1,0-0.2,0-0.5,0.1c-3.9,0-7-3.1-7-7     c0-3.3,2.2-6.1,5.5-6.8c0.7-0.2,1.3-0.8,1.4-1.5c0.4-3.5,3.4-6.1,6.9-6.1c2,0,3.8,0.8,5.2,2.3c0.4,0.4,0.9,0.6,1.4,0.6     c0.5,0,1-0.3,1.3-0.7c1.5-1.9,3.7-2.9,6-2.9c2.8,0,5.4,1.6,6.8,4.1c0.3,0.5,0.8,0.9,1.4,0.9c4,0.4,7,3.7,7,7.7     C87.2,22,85.4,24.8,82.5,26z"></path><path d="M56.4,57.7c-0.1-0.3-0.2-0.6-0.3-0.9C55.1,44.6,45,35.4,32.8,35.4c-13,0-23.5,10.6-23.5,23.5c0,7.5,3.5,15,9.4,20     c0.1,0.1,0.4,0.4,0.4,0.8v12.5c0,1.9,1.4,3.5,3.4,3.7L41,97.5c0.1,0,0.2,0,0.3,0c0.9,0,1.8-0.3,2.5-1c0.8-0.7,1.2-1.7,1.2-2.7     v-8.1h5.8c3,0,5.4-2.4,5.4-5.4v-7.7h2.1c1.5,0,3-0.8,3.7-2.2c0.7-1.4,0.7-3-0.2-4.3L56.4,57.7z M59,68.7     c-0.1,0.1-0.2,0.3-0.6,0.3h-3.2c-1.4,0-2.5,1.1-2.5,2.5v8.8c0,1-0.8,1.9-1.9,1.9h-6.5c-1.6,0-2.8,1.3-2.8,2.8l-0.1,8.9l-18.8-1.8     V79.7c0-1.3-0.6-2.6-1.6-3.5c-5-4.3-8.1-10.9-8.1-17.3c0-11,9-20,20-20c10.4,0,18.9,7.8,19.9,18.2c0.1,0.9,0.3,1.7,0.8,2.5     l5.5,8.5C59.1,68.3,59,68.6,59,68.7z"></path></g></g></g></svg></g></g></svg>