<svg xmlns="http://www.w3.org/2000/svg" xmlns:xlink="http://www.w3.org/1999/xlink" width="100" height="100" viewBox="0 0 100 100"><g><g transform="translate(50 50) scale(0.69 0.69) rotate(0) translate(-50 -50)" style="fill:#000000"><svg fill="#000000" xmlns="http://www.w3.org/2000/svg" xmlns:xlink="http://www.w3.org/1999/xlink" version="1.1" x="0px" y="0px" viewBox="0 0 100 100" enable-background="new 0 0 100 100" xml:space="preserve"><g><path d="M86.008,50.118l-7.295-21.606l0.904-0.114c1.234-0.152,2.336-0.779,3.102-1.763c0.766-0.985,1.104-2.206,0.949-3.438   c-0.287-2.332-2.273-4.091-4.617-4.091c-0.195,0-0.391,0.012-0.584,0.036l-24.004,2.989c-1.031-1.285-2.59-2.041-4.252-2.041   c-2.132,0-4.071,1.264-4.952,3.186l-24.881,3.101c-2.549,0.313-4.366,2.649-4.052,5.206c0.294,2.329,2.283,4.086,4.627,4.086   c0.167,0,0.332-0.011,0.507-0.028l-7.111,21.063H8.854l0.165,2.19c0.385,5.049,4.647,9.006,9.705,9.006h13.713   c5.057,0,9.32-3.956,9.705-9.005l0.166-2.191h-5.139l-7.456-22.09l15.047-1.875v37.252h-7.997c-3.006,0-5.451,2.445-5.451,5.451   s2.445,5.451,5.451,5.451h26.899c3.006,0,5.453-2.445,5.453-5.451s-2.447-5.451-5.453-5.451h-8V31.382l14.457-1.799l-6.936,20.535   h-5.498l0.172,2.19c0.379,5.051,4.643,9.007,9.705,9.007h13.709c5.061,0,9.324-3.956,9.705-9.005l0.17-2.192H86.008z    M32.437,63.826H18.724c-2.102,0-4.043-1.216-5.011-3.051h23.735C36.479,62.61,34.538,63.826,32.437,63.826z M63.662,77.122H36.763   c-0.926,0-1.679-0.754-1.679-1.68s0.753-1.679,1.679-1.679h26.899c0.928,0,1.68,0.753,1.68,1.679S64.59,77.122,63.662,77.122z    M20.072,31.11c-0.03-0.231,0.035-0.465,0.179-0.65c0.151-0.193,0.361-0.313,0.594-0.342l27.688-3.447v-1.129   c0-0.148,0.027-0.309,0.084-0.49c0.125-0.397,0.381-0.729,0.729-0.938c0.271-0.169,0.563-0.253,0.865-0.253   c0.143,0,0.294,0.026,0.49,0.084c0.391,0.119,0.725,0.377,0.939,0.728c0.152,0.249,0.234,0.522,0.24,0.813l0.023,0.768   l27.025-3.366c0.037-0.005,0.074-0.008,0.111-0.008c0.449,0,0.828,0.336,0.885,0.777c0.027,0.235-0.037,0.471-0.182,0.658   c-0.152,0.192-0.361,0.313-0.594,0.341l-24.275,3.021l-1.186,0.151l-1.801,0.224v41.939h-3.356V28.47l-27.465,3.42   c-0.035,0.005-0.071,0.007-0.106,0.007c-0.198,0-0.39-0.066-0.55-0.189C20.219,31.557,20.102,31.353,20.072,31.11z M74.258,29.065   l0.65-0.08l7.135,21.133H67.148L74.258,29.065z M18.313,56.704l7.285-21.577l0.313-0.04l7.294,21.617H18.313z M81.271,57.242   H67.563c-2.1,0-4.041-1.215-5.014-3.05h23.736C85.313,56.027,83.369,57.242,81.271,57.242z"></path></g></svg></g></g></svg>