<svg xmlns="http://www.w3.org/2000/svg" xmlns:xlink="http://www.w3.org/1999/xlink" width="100" height="100" viewBox="0 0 100 100"><g><g transform="translate(50 50) scale(0.69 0.69) rotate(0) translate(-50 -50)" style="fill:#000000"><svg fill="#000000" xmlns="http://www.w3.org/2000/svg" xmlns:xlink="http://www.w3.org/1999/xlink" version="1.1" x="0px" y="0px" viewBox="-909 491 100 100" style="enable-background:new -909 491 100 100;" xml:space="preserve"><style type="text/css">
	.st0{fill:#000000;}
</style><path class="st0" d="M-868.7,561.2c0,0-0.1-0.1-0.1-0.1l0,0C-868.7,561.1-868.7,561.2-868.7,561.2z"></path><g><path d="M-868.7,561.2c0,0-0.1-0.1-0.1-0.1l0,0C-868.7,561.1-868.7,561.2-868.7,561.2z"></path><path d="M-869.7,558.9c-0.1-0.2-0.2-0.3-0.2-0.5c-0.1-0.2-0.2-0.6-0.4-1C-870.2,557.6-870,558.2-869.7,558.9z"></path><path d="M-837.2,545.3c-0.8-3.4-4.3-5.4-7.1-6.8c-0.1-0.9-0.5-1.6-1-2.2c0.4-0.5,0.7-1.2,0.7-2.1c0-1.2-0.6-2.2-1.6-2.9   c-0.5-0.3-1-0.5-1.5-0.5c0.9-2.2,2-5.1,2-8.2c0-5.6-3.5-9.2-8.9-9.2c-5.4,0-8.9,3.6-8.9,9.2c0,3.1,0.9,5.9,1.7,8.2   c0.2,0.8,0.5,1.5,0.6,2.1c0.1,0.3,0.1,0.5,0.1,0.8c0,0.1,0,0.3,0,0.4c-0.5,0.4-0.8,1-0.9,1.6c-3.8,0.5-9.8,3.9-11.5,7.3   c-3.2,6.1,0.9,16.6,0.9,16.8c0.1,0.2,0.2,0.5,0.4,0.8c-0.3,0-0.4,0-0.4,0c-1.5-0.2-4.4,0.1-6.1,1.7c-1,0.9-1.4,2-1.4,3.3   c0.1,1.4,0.9,2.8,2.3,3.9c1.1,0.8,2.6,1.5,4,1.5c0.3,0,0.5,0,0.8-0.1c1.3-0.3,2-1.2,2.5-1.8c0.2-0.2,0.5-0.6,0.6-0.6   c0.6,0,1.5-0.1,3.2-0.3c0.8,0.5,1.6,0.9,2.4,0.9c1.7,0,2.9-0.8,3.8-1.8c1.9-0.2,3.7-0.4,5.3-0.4h1.5c8,0,13.8-0.1,15.6-2.4   C-835.9,561.2-836.4,548.4-837.2,545.3z M-854.7,516.3c3.8,0,5.9,2.2,5.9,6.2c0,2.9-1.2,5.9-2.1,7.9c-0.2,0.5-0.4,1-0.6,1.4   c-1.3,0.7-2.6,1.6-3.5,2.4c-1.3-0.8-2.3-1.2-3.3-1.2c0-0.3-0.1-0.6-0.2-0.9c-0.2-0.7-0.4-1.5-0.7-2.2c-0.7-2.1-1.5-4.6-1.5-7.3   C-860.7,518.6-858.5,516.3-854.7,516.3z M-869.9,565.2c-1.6-0.1-2.5,1-3,1.7c-0.4,0.4-0.6,0.7-0.9,0.8c-0.3,0.1-1.4-0.1-2.3-0.9   c-0.7-0.5-1.1-1.1-1.1-1.6c0-0.4,0.1-0.7,0.4-0.9c0.8-0.7,2.5-1,3.6-0.9c0.3,0.1,0.7,0.1,2.2-0.1c0.3,0.6,0.8,1.3,1.3,1.9   C-869.7,565.2-869.8,565.2-869.9,565.2z M-862.5,564.1c-0.8,1-1.5,1.6-1.9,1.6c-0.7,0-1.3-0.5-1.8-1c-0.9-0.9-1.5-2.2-1.8-2.5   c-0.1-0.2-0.2-0.4-0.4-0.6c0,0,0,0,0,0c0,0-0.1-0.1-0.1-0.2c0,0-0.1-0.1-0.1-0.1c0,0-0.1-0.1-0.1-0.1l0,0c-0.3-0.5-0.6-1.4-0.9-2.1   c-0.1-0.2-0.2-0.3-0.2-0.5c-0.1-0.2-0.2-0.6-0.4-1c0,0,0,0,0,0c-1-2.9-2.6-9.6-0.7-13.2c1.2-2.4,6.7-5.4,9.5-5.7   c0.3,0.4,2.7,2.5,3,2.8c0,0,0,0.1,0.1,0.1c-0.4,0.6-0.8,1.4-1,1.7c-0.1,0.1-0.2,0.2-0.2,0.3c-0.7,1.4-1.6,3-2.5,4.6l-0.3,0.5   l-0.9,1.7l-0.3-1.1l-0.5-1.8c0,0-1.4-1.7-2.2,0c-0.6,1.1,0.8,5.1,1.7,7.5c0,0.1,0.1,0.1,0.1,0.2c0.1,0.3,0.3,0.6,0.6,0.8   c0,0,0.1,0,0.1,0.1c0,0,0.1,0,0.1,0c0,0,0.1,0,0.1,0s0.1,0,0.2,0c0,0,0.1,0,0.2-0.1c0.1-0.1,0.2-0.1,0.2-0.2c0,0,0.1-0.1,0.1-0.1   c0,0,0.1-0.1,0.1-0.2l0.4-0.7l1.7-2.9c1.3-2.3,2.8-4.9,3.9-6.9c0.1-0.1,1.2-2.3,1.5-3.1c0.2-0.5-0.2-1.7-0.9-2.5   c-0.7-0.7-1.6-1.4-2.4-1.7c0,0-0.2-0.1-0.3-0.3c-0.2-0.2-0.3-0.6-0.1-0.9c0,0,0,0,0,0c0-0.1,0.2-0.2,0.4-0.3c0.1,0,0.2,0,0.2,0   c0,0,0.1,0,0.2,0c0.7,0.1,1.8,0.7,2.3,1.1c0.5,0.3,1,0.7,1.4,0.7c0.2,0,0.4-0.1,0.6-0.3c0-0.1,0.1-0.1,0.2-0.2   c0.1-0.1,0.2-0.1,0.2-0.2c0.6-0.5,1.6-1.2,2.6-1.9c0.8-0.5,1.6-1,2.2-1.2c0,0,0.1,0,0.1,0c0.1,0,0.2-0.1,0.3-0.1c0.1,0,0.2,0,0.3,0   c0.1,0,0.2,0,0.2,0.1c0.8,0.6-0.2,1.2-0.7,1.5c-0.3,0.2-0.8,0.5-1.1,0.8c0,0,0,0,0,0c-0.2,0.1-0.3,0.2-0.3,0.2s1,0,1.4,0.4   c0.4,0.3,1.2,1.2,1.3,2c0,0,0,0,0,0v0c0,0.1,0,0.2,0,0.3c0,0,0.2,0.7-0.3,1.3c-0.1,0.1-0.1,0.1-0.2,0.2c0,0-0.1,0.1-0.1,0.1   c-0.9,0.7-2.8,1.6-3.1,2.2c-0.3,0.6-2.1,4.7-2.1,4.7C-854,549.9-859.3,560.2-862.5,564.1z M-840.5,562.2c-1.1,1.3-10,1.3-13.3,1.2   h-1.6c-0.9,0-1.9,0-3,0.1c0.1,0,0.1-0.1,0.1-0.2c0.5-0.9,1-1.7,1.5-2.5c4.7-0.7,8.7-1.2,8.7-1.2c0.5-0.1,0.9-0.6,0.8-1.1   c-0.1-0.5-0.6-0.9-1.1-0.8c0,0-3.1,0.5-7.1,1c2.6-4.4,4-7.3,5-10.3c0.3-0.6,1.3-2.9,1.8-4c0.3-0.2,0.6-0.4,0.9-0.6   c0.5-0.3,1-0.6,1.5-1c0.5-0.4,1-0.9,1.3-1.4c2.1,1.1,4.3,2.5,4.8,4.4C-839.2,549.7-839.4,560.9-840.5,562.2z"></path><path d="M-858.8,536c-0.2,0.1-0.3,0.2-0.4,0.3C-859.2,536.2-859,536.1-858.8,536z"></path></g></svg></g></g></svg>