<svg height='100px' width='100px'  fill="#000000" xmlns="http://www.w3.org/2000/svg" data-name="Layer 1" viewBox="0 0 100 100" x="0px" y="0px"><title>Direction2</title><path d="M81,42.39H18V18.22H81L93,30.31Zm-59-4H79.33l8-8.08-8-8.08H22Z"></path><path d="M18.21,46.09h63V70.26h-63l-12-12.08Zm59,4H19.87l-8,8.08,8,8.08H77.21Z"></path><path d="M52.5,68.09v22.3H47.17V68.21l-4,.08v26.1H56.5V68Z"></path><path d="M56.5,47.35v-7h-4v6.83C53.83,47.25,55.17,47.3,56.5,47.35Z"></path><path d="M47.17,47.1V40.39h-4v6.69Z"></path><path d="M56.5,20.22h-4v-7.5a2.67,2.67,0,1,0-5.33,0v7.5h-4v-7.5a6.67,6.67,0,1,1,13.33,0Z"></path></svg>