<svg xmlns="http://www.w3.org/2000/svg" xmlns:xlink="http://www.w3.org/1999/xlink" width="100" height="100" viewBox="0 0 100 100"><g><g transform="translate(50 50) scale(0.69 0.69) rotate(0) translate(-50 -50)" style="fill:#000000"><svg fill="#000000" xmlns="http://www.w3.org/2000/svg" xmlns:xlink="http://www.w3.org/1999/xlink" version="1.1" x="0px" y="0px" viewBox="0 0 64 64" style="enable-background:new 0 0 64 64;" xml:space="preserve"><rect x="29" y="45" width="7" height="2"></rect><path d="M61.91,48.799c-0.046-0.341-0.111-0.674-0.194-1.002c-0.004-0.015-0.005-0.031-0.009-0.046  c-0.001-0.006-0.005-0.01-0.007-0.016C60.692,43.867,57.18,41,53,41h-6.051c-0.11-1.429-0.439-2.797-0.975-4.06l15.277-3.972  c0.259-0.067,0.48-0.236,0.614-0.468s0.169-0.508,0.098-0.766l-8-29c-0.07-0.257-0.24-0.475-0.472-0.605  c-0.232-0.131-0.506-0.163-0.762-0.092l-50,14c-0.257,0.071-0.474,0.242-0.604,0.475s-0.161,0.507-0.089,0.763l6.781,23.735  C5.044,41.106,2,44.202,2,48v2c0,3.547,2.655,6.479,6.08,6.932C8.53,59.799,11.009,62,14,62c2.967,0,5.431-2.167,5.91-5H41.09  c0.478,2.833,2.942,5,5.91,5s5.431-2.167,5.91-5H61c0.553,0,1-0.447,1-1v-4v-2c0-0.366-0.028-0.724-0.071-1.079  C61.924,48.88,61.916,48.84,61.91,48.799z M59.926,49.036C59.974,49.361,60,49.684,60,50v1h-1c-0.552,0-1-0.448-1-1s0.448-1,1-1  h0.92C59.922,49.012,59.924,49.024,59.926,49.036z M28.422,29C28.145,28.369,28,27.688,28,27c0-2.757,2.243-5,5-5s5,2.243,5,5  c0,0.864-0.221,1.699-0.643,2.444c-0.037-0.01-0.074-0.021-0.111-0.031c-0.163-0.042-0.328-0.079-0.493-0.114  c-0.101-0.022-0.202-0.041-0.304-0.061c-0.223-0.042-0.447-0.081-0.673-0.111c-0.081-0.011-0.163-0.02-0.244-0.029  c-0.104-0.012-0.207-0.027-0.312-0.037C34.815,29.025,34.41,29,34,29H28.422z M41.675,31.507c-0.072-0.053-0.152-0.093-0.225-0.144  c-0.135-0.095-0.272-0.186-0.411-0.276c-0.167-0.109-0.337-0.213-0.508-0.313c-0.1-0.058-0.196-0.121-0.298-0.177  c-0.052-0.029-0.107-0.054-0.16-0.082c-0.269-0.143-0.543-0.275-0.82-0.398C39.738,29.152,40,28.097,40,27c0-3.859-3.141-7-7-7  s-7,3.141-7,7c0,0.679,0.11,1.351,0.305,2H24c-0.438,0-0.871,0.023-1.298,0.066c-0.054,0.005-0.107,0.015-0.16,0.021  c-0.095,0.011-0.189,0.03-0.284,0.043c-0.274,0.037-0.549,0.071-0.817,0.125c-0.122,0.025-0.241,0.059-0.362,0.087  c-0.074,0.017-0.146,0.037-0.22,0.055c-0.213,0.053-0.428,0.102-0.637,0.165c-0.168,0.051-0.331,0.115-0.496,0.173  c-0.045,0.016-0.091,0.031-0.136,0.047c-0.021,0.008-0.042,0.014-0.064,0.022c-0.159,0.059-0.319,0.113-0.475,0.178  c-0.166,0.069-0.326,0.148-0.489,0.223c-0.211,0.098-0.423,0.194-0.628,0.303c-0.16,0.085-0.315,0.179-0.471,0.271  c-0.197,0.115-0.394,0.23-0.584,0.355c-0.153,0.101-0.3,0.209-0.449,0.316c-0.182,0.131-0.364,0.263-0.539,0.403  c-0.144,0.115-0.283,0.237-0.422,0.358c-0.168,0.146-0.334,0.294-0.494,0.449c-0.129,0.125-0.253,0.253-0.376,0.383  c-0.018,0.018-0.035,0.036-0.053,0.055c-0.139,0.147-0.275,0.297-0.407,0.451c-0.122,0.142-0.239,0.287-0.354,0.434  c-0.065,0.082-0.136,0.159-0.198,0.243l-2.447-9.787c1.578-1.086,2.593-2.786,2.814-4.664l31.624-8.625  c1.034,1.44,2.326,2.717,4.654,2.839l2.624,9.619c-1.651,1.395-2.114,3.271-2.603,5.246l-0.083,0.334L41.675,31.507z M13.054,40.935  c0.014-0.141,0.039-0.277,0.058-0.416c0.029-0.217,0.057-0.435,0.099-0.648c0.029-0.146,0.068-0.289,0.103-0.433  c0.048-0.2,0.095-0.4,0.154-0.596c0.044-0.146,0.097-0.289,0.146-0.432c0.065-0.187,0.129-0.374,0.204-0.556  c0.058-0.143,0.124-0.282,0.188-0.422c0.081-0.176,0.162-0.35,0.251-0.521c0.072-0.137,0.15-0.271,0.227-0.405  c0.027-0.047,0.057-0.092,0.084-0.139c0.237-0.396,0.495-0.774,0.776-1.133c0.005-0.007,0.01-0.014,0.016-0.021  c0.292-0.371,0.607-0.721,0.942-1.049c0.004-0.004,0.007-0.008,0.011-0.011c0.334-0.326,0.688-0.63,1.058-0.91  c0.009-0.007,0.019-0.014,0.028-0.021c1.106-0.832,2.362-1.449,3.698-1.82c0.061-0.017,0.122-0.032,0.183-0.047  c0.362-0.094,0.731-0.165,1.103-0.222c0.056-0.008,0.111-0.018,0.167-0.026c0.044-0.006,0.088-0.014,0.132-0.019  C23.117,31.034,23.556,31,24,31h3v10H13.051C13.053,40.979,13.052,40.956,13.054,40.935z M29,31h5c0.444,0,0.881,0.037,1.315,0.089  c0.03,0.004,0.06,0.007,0.09,0.011c0.094,0.012,0.188,0.026,0.281,0.041c0.362,0.056,0.719,0.13,1.071,0.221  c0.147,0.038,0.292,0.082,0.438,0.127c0.343,0.104,0.681,0.218,1.011,0.354c0.003,0.001,0.007,0.003,0.01,0.004  c0.107,0.045,0.212,0.096,0.317,0.144c0.292,0.133,0.578,0.279,0.857,0.436c0.052,0.029,0.104,0.058,0.155,0.088  c0.1,0.059,0.2,0.119,0.298,0.182c0.232,0.145,0.455,0.303,0.675,0.465c0.091,0.067,0.184,0.129,0.274,0.2  c0.095,0.075,0.185,0.155,0.278,0.233c0.21,0.177,0.414,0.361,0.611,0.553c0.122,0.119,0.244,0.237,0.36,0.362  c0.265,0.285,0.52,0.581,0.755,0.895c0.08,0.106,0.15,0.219,0.226,0.328c0.181,0.26,0.352,0.528,0.511,0.806  c0.77,1.338,1.275,2.847,1.421,4.461H29V31z M52.303,4.233l7.464,27.054l-14.735,3.832c-0.044-0.071-0.099-0.133-0.145-0.202  c-0.179-0.275-0.373-0.538-0.572-0.798c-0.169-0.221-0.342-0.436-0.524-0.644c-0.112-0.128-0.226-0.254-0.343-0.377l7.816-2.132  c0.349-0.095,0.619-0.371,0.707-0.722l0.227-0.908c0.484-1.96,0.867-3.509,2.358-4.503c0.358-0.238,0.523-0.68,0.41-1.095l-3-11  C51.846,12.302,51.451,12,51,12h-0.395c-1.771,0-2.595-0.788-3.773-2.555c-0.239-0.359-0.685-0.522-1.095-0.41l-33,9  C12.302,18.154,12,18.549,12,19c0,1.543-0.767,2.976-2.051,3.832l-0.504,0.336c-0.352,0.234-0.518,0.665-0.415,1.074l3,12  c0.031,0.126,0.088,0.243,0.163,0.346c-0.008,0.018-0.015,0.036-0.023,0.054c-0.079,0.174-0.156,0.347-0.228,0.525  c-0.083,0.206-0.158,0.416-0.23,0.628c-0.062,0.182-0.124,0.363-0.179,0.549c-0.063,0.216-0.117,0.435-0.169,0.656  c-0.045,0.189-0.091,0.376-0.127,0.568c-0.043,0.226-0.074,0.455-0.105,0.685c-0.026,0.193-0.055,0.384-0.072,0.579  c-0.005,0.057-0.017,0.112-0.021,0.169h-0.142L4.237,17.692L52.303,4.233z M14,60c-2.206,0-4-1.794-4-4s1.794-4,4-4s4,1.794,4,4  S16.206,60,14,60z M47,60c-2.206,0-4-1.794-4-4s1.794-4,4-4s4,1.794,4,4S49.206,60,47,60z M52.917,55  c-0.004-0.023-0.013-0.044-0.018-0.067c-0.055-0.304-0.133-0.6-0.232-0.887c-0.018-0.053-0.038-0.104-0.057-0.156  c-0.108-0.286-0.234-0.562-0.382-0.825c-0.022-0.038-0.046-0.074-0.068-0.112c-0.161-0.272-0.338-0.533-0.539-0.775  c-0.005-0.007-0.012-0.012-0.017-0.019c-0.202-0.241-0.424-0.463-0.661-0.67c-0.027-0.023-0.051-0.048-0.078-0.071  c-0.233-0.196-0.482-0.372-0.743-0.532c-0.044-0.027-0.087-0.054-0.132-0.08c-0.26-0.15-0.532-0.281-0.815-0.392  c-0.049-0.019-0.099-0.037-0.149-0.055c-0.291-0.105-0.59-0.191-0.899-0.25c-0.039-0.008-0.08-0.011-0.12-0.018  C47.679,50.036,47.344,50,47,50s-0.679,0.036-1.007,0.091c-0.04,0.007-0.08,0.011-0.12,0.018c-0.309,0.059-0.608,0.145-0.899,0.25  c-0.05,0.018-0.1,0.035-0.149,0.055c-0.283,0.111-0.555,0.241-0.816,0.392c-0.045,0.026-0.088,0.053-0.132,0.08  c-0.261,0.16-0.51,0.335-0.743,0.532c-0.027,0.023-0.051,0.048-0.078,0.071c-0.236,0.207-0.459,0.429-0.661,0.67  c-0.005,0.007-0.012,0.012-0.017,0.019c-0.201,0.242-0.378,0.504-0.539,0.776c-0.022,0.037-0.046,0.073-0.067,0.111  c-0.148,0.263-0.274,0.54-0.382,0.826c-0.02,0.052-0.039,0.103-0.057,0.156c-0.099,0.287-0.178,0.582-0.232,0.887  c-0.004,0.023-0.014,0.044-0.018,0.067H19.917c-0.004-0.023-0.013-0.044-0.018-0.067c-0.055-0.304-0.133-0.6-0.232-0.887  c-0.018-0.053-0.038-0.104-0.057-0.156c-0.108-0.286-0.234-0.562-0.382-0.825c-0.022-0.038-0.046-0.074-0.068-0.112  c-0.161-0.272-0.338-0.533-0.539-0.775c-0.005-0.007-0.012-0.012-0.017-0.019c-0.202-0.241-0.424-0.463-0.661-0.67  c-0.027-0.023-0.051-0.048-0.078-0.071c-0.233-0.196-0.482-0.372-0.743-0.532c-0.044-0.027-0.087-0.054-0.132-0.08  c-0.26-0.15-0.532-0.281-0.815-0.392c-0.049-0.019-0.099-0.037-0.149-0.055c-0.291-0.105-0.59-0.191-0.899-0.25  c-0.039-0.008-0.08-0.011-0.12-0.018C14.679,50.036,14.344,50,14,50c-0.339,0-0.669,0.035-0.993,0.089  c-0.042,0.007-0.085,0.012-0.128,0.02c-0.305,0.058-0.6,0.142-0.887,0.244c-0.052,0.018-0.103,0.037-0.154,0.057  c-0.28,0.109-0.55,0.236-0.808,0.384c-0.044,0.025-0.086,0.052-0.129,0.079c-0.261,0.158-0.512,0.332-0.745,0.527  c-0.02,0.017-0.039,0.036-0.059,0.054c-0.229,0.197-0.443,0.411-0.64,0.639c-0.018,0.021-0.039,0.041-0.057,0.062  c-0.195,0.232-0.368,0.482-0.526,0.742c-0.027,0.044-0.054,0.087-0.08,0.132c-0.148,0.258-0.275,0.527-0.384,0.806  c-0.02,0.052-0.038,0.103-0.057,0.156c-0.102,0.286-0.186,0.581-0.244,0.886C8.107,54.89,8.1,54.903,8.098,54.918  C5.77,54.492,4,52.449,4,50v-2c0-2.757,2.243-5,5-5h1.143H12h34h7c2.785,0,5.188,1.639,6.315,4H59c-1.654,0-3,1.346-3,3s1.346,3,3,3  h1v2H52.917z"></path><rect x="46" y="55" width="2" height="2"></rect><rect x="13" y="55" width="2" height="2"></rect></svg></g></g></svg>