<svg xmlns="http://www.w3.org/2000/svg" xmlns:xlink="http://www.w3.org/1999/xlink" width="100" height="100" viewBox="0 0 100 100"><g><g transform="translate(50 50) scale(0.69 0.69) rotate(0) translate(-50 -50)" style="fill:#000000"><svg fill="#000000" xmlns="http://www.w3.org/2000/svg" xmlns:xlink="http://www.w3.org/1999/xlink" version="1.1" x="0px" y="0px" viewBox="0 0 100 100" enable-background="new 0 0 100 100" xml:space="preserve"><g><g><g><path d="M79.92,87.457H10.286c-0.791,0-1.427-0.641-1.427-1.426c0-0.791,0.636-1.427,1.427-1.427H79.92     c0.791,0,1.426,0.636,1.426,1.427C81.346,86.816,80.711,87.457,79.92,87.457z"></path></g></g></g><g><g><g><path d="M92.28,87.457h-6.177c-0.791,0-1.427-0.641-1.427-1.426c0-0.791,0.636-1.427,1.427-1.427h6.177     c0.791,0,1.427,0.636,1.427,1.427C93.707,86.816,93.071,87.457,92.28,87.457z"></path></g></g></g><g><g><g><path d="M44.51,87.457H13.851c-0.791,0-1.426-0.641-1.426-1.426V60.914c0-0.785,0.635-1.426,1.426-1.426h5.682     c0.379,0,0.747,0.15,1.014,0.424l24.972,25.11c0.407,0.412,0.529,1.025,0.307,1.555C45.602,87.111,45.084,87.457,44.51,87.457z      M15.277,84.604h25.801L18.942,62.341h-3.665V84.604z"></path></g></g></g><g><g><g><path d="M61.872,81.357c-13.881,0-17.992-4.044-18.415-4.506L15.354,49.824c-9.046-8.707-9.063-11.018-9.063-11.776     c-0.006-0.718,0.307-1.136,0.496-1.32c0.39-0.485,11.92-14.411,19.206-18.416c0.813-0.446,1.554-0.663,2.262-0.663     c3.27,0,3.86,4.055,4.428,7.977c0.747,5.114,1.46,8.456,4.418,7.865c1.08-0.217,2.133-0.323,3.119-0.323     c5.999,0,8.885,4.111,9.569,6.283c0.067,0.256,4.975,18.761,14.611,23.635c6.205,3.142,9.687,8.121,8.667,12.399     C72.646,77.252,70.713,81.357,61.872,81.357z M9.217,38.26c0.278,0.746,1.632,3.27,8.115,9.508l28.164,27.094     c0.077,0.078,3.748,3.644,16.376,3.644c4.796,0,7.865-1.343,8.423-3.677c0.585-2.468-1.688-6.417-7.181-9.196     C52.325,60.179,47.262,41.051,47.05,40.237c-0.033-0.089-1.471-4.216-6.829-4.216c-0.802,0-1.666,0.089-2.563,0.267     c-6.133,1.22-7.068-5.247-7.793-10.255c-0.284-1.933-0.808-5.531-1.609-5.531c-0.117,0-0.391,0.039-0.886,0.312     C21.204,24.206,11.144,35.971,9.217,38.26z"></path></g></g></g><g><g><g><path d="M42.371,47.546c-0.58,0-1.12-0.351-1.337-0.925c-0.278-0.735,0.095-1.56,0.835-1.833l7.158-2.685     c0.729-0.29,1.56,0.095,1.838,0.83c0.278,0.741-0.095,1.56-0.835,1.838l-7.158,2.685C42.705,47.518,42.538,47.546,42.371,47.546z     "></path></g></g></g><g><g><g><path d="M43.975,52.531c-0.579,0-1.119-0.352-1.337-0.925c-0.278-0.735,0.095-1.56,0.836-1.833l7.158-2.685     c0.735-0.284,1.56,0.095,1.838,0.83c0.278,0.741-0.095,1.56-0.836,1.838l-7.157,2.684C44.31,52.504,44.143,52.531,43.975,52.531z     "></path></g></g></g><g><g><g><path d="M46.314,57.3c-0.579,0-1.119-0.357-1.337-0.925c-0.278-0.741,0.095-1.561,0.836-1.838l7.157-2.686     c0.73-0.284,1.56,0.1,1.839,0.836c0.278,0.734-0.095,1.56-0.836,1.832l-7.158,2.686C46.648,57.271,46.481,57.3,46.314,57.3z"></path></g></g></g><g><g><g><path d="M61.188,75.358c-6.868,0-12.968-3.03-13.28-3.187c-0.139-0.072-0.267-0.167-0.378-0.278     C34.366,58.38,12.676,36.483,10.497,35.258c-0.757-0.212-1.113-0.964-0.896-1.721c0.206-0.763,1.108-1.175,1.844-0.958     c2.017,0.568,21.708,20.464,37.95,37.142c1.237,0.58,7.883,3.487,14.327,2.618c-0.105-1.002-0.05-2.317,0.624-3.531     c0.513-0.913,1.588-2.111,3.826-2.579c0.77-0.167,1.532,0.334,1.688,1.103c0.161,0.774-0.329,1.526-1.104,1.688     c-0.958,0.2-1.587,0.585-1.916,1.17c-0.534,0.946-0.233,2.345-0.078,2.807c0.134,0.385,0.101,0.808-0.095,1.165     c-0.194,0.351-0.528,0.612-0.924,0.701C64.223,75.214,62.686,75.358,61.188,75.358z"></path></g></g></g><g><g><g><path d="M39.401,42.811c-2.913,0-6.06-0.513-8.762-2.139c-3.442-2.072-5.548-5.559-6.261-10.36     c-0.803-5.476-1.811-6.863-2.206-7.208c-0.591-0.518-0.657-1.42-0.14-2.011c0.519-0.59,1.415-0.663,2.012-0.139     c1.442,1.248,2.445,4.094,3.158,8.94c0.579,3.921,2.228,6.723,4.907,8.333c6.139,3.693,15.747,0.346,15.842,0.312     c0.729-0.273,1.554,0.123,1.821,0.869c0.262,0.741-0.122,1.554-0.869,1.816C48.626,41.324,44.349,42.811,39.401,42.811z"></path></g></g></g><g><g><g><path d="M24.362,22.502c-0.307,0-0.618-0.101-0.881-0.307c-1.092-0.858-4.617-3.877-4.283-6.656     c0.095-0.797,0.535-1.894,2.083-2.596c1.571-0.718,2.729-0.339,3.421,0.106c2.395,1.543,2.506,6.155,2.506,7.063     c0,0.785-0.635,1.426-1.426,1.426l0,0c0,0-0.044,0-0.066-0.005c-0.051,0.15-0.128,0.295-0.234,0.423     C25.203,22.313,24.785,22.502,24.362,22.502z M22.964,15.399c-0.105,0-0.262,0.028-0.501,0.14     c-0.101,0.044-0.418,0.195-0.435,0.339c-0.078,0.652,1.02,2.083,2.289,3.27c-0.134-1.621-0.573-3.32-1.164-3.699     C23.131,15.433,23.075,15.399,22.964,15.399z"></path></g></g></g></svg></g></g></svg>