<svg xmlns="http://www.w3.org/2000/svg" xmlns:xlink="http://www.w3.org/1999/xlink" width="100" height="100" viewBox="0 0 100 100"><g><g transform="translate(50 50) scale(0.69 0.69) rotate(0) translate(-50 -50)" style="fill:#000000"><svg fill="#000000" xmlns:x="http://ns.adobe.com/Extensibility/1.0/" xmlns:i="http://ns.adobe.com/AdobeIllustrator/10.0/" xmlns:graph="http://ns.adobe.com/Graphs/1.0/" xmlns="http://www.w3.org/2000/svg" xmlns:xlink="http://www.w3.org/1999/xlink" xmlns:a="http://ns.adobe.com/AdobeSVGViewerExtensions/3.0/" version="1.1" x="0px" y="0px" viewBox="0 0 100 100" enable-background="new 0 0 100 100" xml:space="preserve"><metadata><?xpacket begin="&#65279;" id="W5M0MpCehiHzreSzNTczkc9d"?><x:xmpmeta xmlns:x="adobe:ns:meta/" x:xmptk="Adobe XMP Core 5.5-c014 79.151739, 2013/04/03-12:12:15        "></x:xmpmeta><?xpacket end="w"?></metadata><rect x="19.930769" y="32.500206" transform="matrix(-0.9938837 -0.1104314 0.1104314 -0.9938837 58.5818062 70.7445602)" width="22.6384621" height="2.4995918"></rect><rect x="19.930769" y="42.500206" transform="matrix(-0.9938837 -0.1104314 0.1104314 -0.9938837 57.4774933 90.6833954)" width="22.6384621" height="2.4995918"></rect><rect x="19.930769" y="52.500206" transform="matrix(-0.9938837 -0.1104314 0.1104314 -0.9938837 56.3731766 110.6222305)" width="22.6384621" height="2.4995918"></rect><rect x="19.930769" y="62.500206" transform="matrix(-0.9938837 -0.1104314 0.1104314 -0.9938837 55.2688637 130.5610657)" width="22.6384621" height="2.4995918"></rect><path d="M86.25,18.5585938L50,23.7373047l-36.25-5.1787109V23.75h-10v57.5H50h46.25v-57.5h-10V18.5585938z M32.4116211,73.75H11.25  v-42.5h2.5v39.8339844L32.4116211,73.75z M86.25,31.25h2.5v42.5H67.5883789L86.25,71.0839844V31.25z M83.75,68.9160156  l-32.5,4.6427002V26.0841064l32.5-4.6427002V68.9160156z M16.25,21.4414063l32.5,4.6427002v47.4746094l-32.5-4.6427002V21.4414063z   M93.75,26.25v52.5H50H6.25v-52.5h7.5v2.5h-5v47.5h41.1611328L50,76.2626953L50.0888672,76.25H91.25v-47.5h-5v-2.5H93.75z"></path><rect x="67.500206" y="22.430769" transform="matrix(0.1101743 0.9939123 -0.9939123 0.1101743 94.7200623 -38.2998505)" width="2.4995918" height="22.6384621"></rect><rect x="67.500206" y="32.4307709" transform="matrix(0.1101743 0.9939123 -0.9939123 0.1101743 104.6591797 -29.4015942)" width="2.4995918" height="22.6384621"></rect><rect x="67.500206" y="42.4307709" transform="matrix(0.1101743 0.9939123 -0.9939123 0.1101743 114.5983047 -20.503336)" width="2.4995918" height="22.6384621"></rect><rect x="67.500206" y="52.4307709" transform="matrix(0.1101743 0.9939123 -0.9939123 0.1101743 124.5374298 -11.6050787)" width="2.4995918" height="22.6384621"></rect></svg></g></g></svg>