<svg xmlns="http://www.w3.org/2000/svg" xmlns:xlink="http://www.w3.org/1999/xlink" width="100" height="100" viewBox="0 0 100 100"><g><g transform="translate(50 50) scale(0.69 0.69) rotate(0) translate(-50 -50)" style="fill:#000000"><svg fill="#000000" xmlns="http://www.w3.org/2000/svg" xmlns:xlink="http://www.w3.org/1999/xlink" version="1.1" x="0px" y="0px" viewBox="0 0 100 100" enable-background="new 0 0 100 100" xml:space="preserve"><g><path d="M92.423,81.112l-0.975-0.975c-7.514-7.514-21.246-21.246-32.626-32.635l22.299-22.299l4.778,0.334   c0.035,0.002,0.07,0.003,0.104,0.003c0.539,0,1.041-0.292,1.305-0.769l7.275-13.113c0.324-0.582,0.222-1.308-0.25-1.779   L90.12,5.667c-0.47-0.471-1.197-0.573-1.779-0.25l-13.113,7.276c-0.507,0.281-0.805,0.831-0.765,1.409l0.334,4.776L52.498,41.177   C46.8,35.479,42.372,31.051,40.712,29.391c2.262-6.573,0.615-13.862-4.343-18.82C31.481,5.684,24.37,3.983,17.808,6.133   c-0.023,0.008-0.042,0.02-0.065,0.029c-0.024,0.009-0.045,0.02-0.068,0.03c-0.165,0.072-0.311,0.169-0.435,0.289   c-0.007,0.007-0.016,0.008-0.023,0.015c-0.009,0.009-0.012,0.021-0.02,0.03c-0.122,0.128-0.219,0.274-0.289,0.435   c-0.01,0.022-0.018,0.044-0.026,0.067c-0.059,0.156-0.092,0.321-0.096,0.492c0,0.023,0,0.044,0.001,0.067   c0.003,0.143,0.02,0.286,0.067,0.429c0.008,0.024,0.021,0.044,0.03,0.067c0.008,0.022,0.019,0.043,0.029,0.064   c0.073,0.165,0.169,0.311,0.289,0.435c0.007,0.007,0.009,0.017,0.016,0.024l7.089,7.089c0.676,0.676,1.048,1.573,1.049,2.527   c0.001,0.953-0.37,1.848-1.044,2.522L20.757,24.3c-1.392,1.391-3.657,1.387-5.049-0.005l-7.089-7.089   c-0.007-0.007-0.016-0.008-0.022-0.015c-0.124-0.12-0.271-0.217-0.436-0.29c-0.023-0.01-0.044-0.021-0.067-0.03   c-0.023-0.009-0.043-0.022-0.066-0.029c-0.141-0.046-0.284-0.063-0.425-0.066c-0.024-0.001-0.047-0.002-0.071-0.001   c-0.17,0.004-0.335,0.037-0.491,0.096c-0.022,0.008-0.043,0.016-0.065,0.026c-0.162,0.07-0.309,0.168-0.437,0.291   c-0.009,0.008-0.02,0.011-0.029,0.019c-0.007,0.007-0.008,0.016-0.015,0.022c-0.12,0.124-0.217,0.27-0.289,0.435   c-0.01,0.023-0.021,0.045-0.03,0.069c-0.009,0.023-0.021,0.043-0.029,0.066c-2.143,6.566-0.443,13.677,4.438,18.559   c3.495,3.494,8.147,5.349,12.891,5.349c1.986,0,3.984-0.346,5.923-1.012l7.518,7.519c-0.131-0.01-0.257-0.038-0.389-0.038   c-1.417,0-2.75,0.552-3.751,1.554L6.337,76.167c-1.003,1.002-1.555,2.335-1.555,3.752c0,1.417,0.552,2.75,1.555,3.752l2.295,2.296   c0.001,0.001,0.001,0.002,0.001,0.002c0.001,0.001,0.002,0.001,0.002,0.001l7.693,7.694c1.002,1.002,2.335,1.554,3.752,1.554   c1.418,0,2.751-0.552,3.752-1.554l26.438-26.439c1.003-1.002,1.555-2.335,1.555-3.752c0-0.131-0.028-0.257-0.038-0.387   l29.321,29.34c1.557,1.557,3.603,2.335,5.652,2.335c2.048,0,4.098-0.778,5.662-2.335c1.508-1.507,2.338-3.514,2.338-5.652   C94.761,84.629,93.93,82.619,92.423,81.112z M77.389,20.508c0.007-0.007,0.009-0.017,0.016-0.024   c0.122-0.127,0.219-0.274,0.29-0.437c0.009-0.02,0.019-0.038,0.027-0.058c0.06-0.154,0.091-0.32,0.096-0.492   c0.001-0.025,0.003-0.049,0.002-0.075c0-0.025,0.004-0.048,0.002-0.073l-0.315-4.507l11.298-6.269l2.622,2.623l-6.269,11.298   l-4.507-0.316c-0.026-0.002-0.05,0.003-0.075,0.002c-0.023,0-0.045,0.001-0.068,0.002c-0.172,0.004-0.338,0.036-0.493,0.096   c-0.023,0.009-0.043,0.02-0.066,0.03c-0.157,0.07-0.301,0.164-0.425,0.282c-0.01,0.009-0.022,0.012-0.032,0.021L51.5,50.604   L49.396,48.5L77.389,20.508z M30.87,37.945c-0.41-0.429-1.054-0.59-1.638-0.352c-5.698,2.312-12.191,1-16.539-3.347   c-3.472-3.473-5.011-8.295-4.293-13.038l5.196,5.197c1.28,1.279,2.96,1.919,4.64,1.919c1.677,0,3.354-0.638,4.63-1.914l3.555-3.555   c1.238-1.238,1.919-2.883,1.918-4.634c-0.001-1.75-0.684-3.397-1.924-4.636l-5.199-5.199c4.741-0.722,9.563,0.818,13.041,4.295   c4.282,4.282,5.612,10.643,3.437,16.277l-1.562,1.572c-0.581,0.584-0.577,1.529,0.007,2.11c0.291,0.29,0.672,0.434,1.052,0.434   c0.384,0,0.767-0.147,1.059-0.441l0.739-0.743c1.872,1.872,6.078,6.078,11.397,11.397l-3.108,3.108   c-0.806-0.771-1.855-1.202-2.973-1.202c-1.152,0-2.235,0.449-3.049,1.263l-0.938,0.938L30.87,37.945z M15.087,88.201l-3.287-3.288   l22.819-22.819c0.878-0.878,2.41-0.878,3.288,0c0.907,0.906,0.907,2.38,0,3.287L15.087,88.201z M48.162,65.115L21.723,91.553   c-0.876,0.876-2.408,0.876-3.284,0l-1.242-1.242l22.82-22.82c2.07-2.07,2.07-5.438,0-7.508c-1.003-1.003-2.336-1.556-3.754-1.556   c-1.419,0-2.752,0.552-3.754,1.556L9.689,82.803L8.447,81.56c-0.438-0.439-0.68-1.022-0.68-1.642c0-0.62,0.242-1.203,0.68-1.642   l26.438-26.439c0.438-0.438,1.021-0.68,1.641-0.68c0.621,0,1.204,0.241,1.642,0.68l9.993,9.993c0.438,0.438,0.68,1.021,0.68,1.641   C48.842,64.093,48.6,64.676,48.162,65.115z M51.432,56.632l-2.124,2.124l-8.065-8.064l2.125-2.124c0.5-0.5,1.374-0.501,1.876,0   l0.978,0.977c0.003,0.003,0.004,0.008,0.008,0.012l4.214,4.214c0.003,0.003,0.008,0.004,0.012,0.008l0.978,0.978   C51.949,55.274,51.949,56.115,51.432,56.632z M90.315,90.313c-1.961,1.952-5.144,1.953-7.095,0.002L52.605,59.68l0.938-0.938   c1.658-1.658,1.673-4.336,0.061-6.022l3.108-3.108c11.381,11.39,25.113,25.121,32.626,32.635l0.975,0.975   c0.943,0.943,1.463,2.204,1.463,3.551C91.776,88.113,91.256,89.371,90.315,90.313z"></path><circle cx="86.766" cy="86.769" r="2.403"></circle></g></svg></g></g></svg>