<svg height='100px' width='100px'  fill="#000000" xmlns="http://www.w3.org/2000/svg" xmlns:xlink="http://www.w3.org/1999/xlink" xml:space="preserve" version="1.1" style="shape-rendering:geometricPrecision;text-rendering:geometricPrecision;image-rendering:optimizeQuality;" viewBox="0 0 1.094 1.094" x="0px" y="0px" fill-rule="evenodd" clip-rule="evenodd"><defs><style type="text/css">
   
    .fil0 {fill:#000000}
   
  </style></defs><g><path class="fil0" d="M0.934 0.934c0.099,-0.099 0.16,-0.236 0.16,-0.387 0,-0.151 -0.061,-0.288 -0.16,-0.387 -0.099,-0.099 -0.236,-0.16 -0.387,-0.16 -0.151,0 -0.288,0.061 -0.387,0.16 -0.099,0.099 -0.16,0.236 -0.16,0.387 0,0.151 0.061,0.288 0.16,0.387 0.099,0.099 0.236,0.16 0.387,0.16 0.151,0 0.288,-0.061 0.387,-0.16zm-0.313 -0.176c0,-0.041 -0.033,-0.074 -0.074,-0.074 -0.041,0 -0.075,0.033 -0.075,0.074 0,0.041 0.034,0.075 0.075,0.075 0.041,0 0.074,-0.034 0.074,-0.075zm-0.074 -0.149c-0.027,0 -0.047,-0.022 -0.05,-0.05l-0.025 -0.223c-0.004,-0.039 0.037,-0.075 0.075,-0.075 0.038,0 0.079,0.036 0.074,0.075l-0.024 0.223c-0.003,0.028 -0.023,0.05 -0.05,0.05z"></path></g></svg>