<svg xmlns="http://www.w3.org/2000/svg" xmlns:xlink="http://www.w3.org/1999/xlink" width="100" height="100" viewBox="0 0 100 100"><g><g transform="translate(50 50) scale(0.69 0.69) rotate(0) translate(-50 -50)" style="fill:#000000"><svg fill="#000000" xmlns="http://www.w3.org/2000/svg" xmlns:xlink="http://www.w3.org/1999/xlink" xml:space="preserve" style="shape-rendering:geometricPrecision;text-rendering:geometricPrecision;image-rendering:optimizeQuality;" viewBox="0 0 6.82666 6.82666" x="0px" y="0px" fill-rule="evenodd" clip-rule="evenodd"><defs><style type="text/css">
   
    .fil1 {fill:none}
    .fil0 {fill:#000000;fill-rule:nonzero}
   
  </style></defs><g><path class="fil0" d="M3.31633 0.813331c0.660047,0 1.25761,0.267539 1.69016,0.700094 0.432555,0.432551 0.700094,1.03011 0.700094,1.69016 0,0.0942165 -0.00552756,0.187429 -0.0162559,0.279319 -0.0109291,0.0935827 -0.0272047,0.185283 -0.0484764,0.274783l-0.0389055 -0.00922047 0.0389173 0.00925197c-0.0051063,0.0214921 -0.0266772,0.0347717 -0.0481693,0.0296654 -0.0106654,-0.00253543 -0.0193071,-0.00912205 -0.024685,-0.0177441 -0.126362,-0.178402 -0.294205,-0.325295 -0.489449,-0.426559 -0.188709,-0.097874 -0.403177,-0.153177 -0.630693,-0.153177 -0.378795,0 -0.721728,0.153535 -0.969953,0.40176 -0.248228,0.248228 -0.401764,0.591161 -0.401764,0.969953 0,0.183917 0.0360157,0.359071 0.101335,0.518807 0.0679016,0.166063 0.167587,0.315953 0.291496,0.442154l-0.028437 0.0279685 0.0285433 -0.0280236c0.0154764,0.0157638 0.0152441,0.0410906 -0.000519685,0.0565669 -0.00799606,0.00785039 -0.0184528,0.0116535 -0.0288346,0.0114449 -0.0192126,0.000988189 -0.0394921,0.00176772 -0.0607992,0.00232677 -0.0247874,0.000653543 -0.0459961,0.000984252 -0.0636063,0.000984252 -0.660039,0 -1.25761,-0.267543 -1.69016,-0.700094 -0.432547,-0.432551 -0.700094,-1.03012 -0.700094,-1.69017 0,-0.660047 0.267539,-1.25761 0.700094,-1.69016 0.432551,-0.432555 1.03011,-0.700094 1.69016,-0.700094zm1.6336 0.756654c-0.418067,-0.418071 -0.995634,-0.676654 -1.6336,-0.676654 -0.637969,0 -1.21554,0.258583 -1.6336,0.676654 -0.418071,0.418067 -0.676654,0.995634 -0.676654,1.6336 0,0.637965 0.258587,1.21554 0.676654,1.63361 0.418067,0.418067 0.995638,0.676654 1.6336,0.676654 0.0134094,0 0.025689,-6.69291e-005 0.0368346,-0.000204724 -0.103374,-0.118902 -0.187772,-0.25489 -0.248425,-0.403217 -0.0693504,-0.169594 -0.107587,-0.354909 -0.107587,-0.548807 0,-0.400874 0.162496,-0.763803 0.425205,-1.02651 0.262709,-0.262709 0.625638,-0.425201 1.02651,-0.425201 0.240461,0 0.467378,0.0585748 0.667252,0.16224 0.181087,0.0939173 0.33987,0.224839 0.466327,0.382709 0.0118465,-0.0596575 0.0213819,-0.120031 0.0285039,-0.181012 0.010315,-0.088374 0.0156339,-0.178551 0.0156339,-0.270256 0,-0.637969 -0.258583,-1.21554 -0.676654,-1.6336z"></path><path class="fil0" d="M3.35606 0.86128c0,-0.0220039 -0.0178386,-0.0398425 -0.0398425,-0.0398425 -0.0220039,0 -0.0398425,0.0178386 -0.0398425,0.0398425l-0.00161811 2.85983c0,0.0220039 0.0178386,0.0398425 0.0398425,0.0398425 0.0220039,0 0.0398425,-0.0178386 0.0398425,-0.0398425l0.00161811 -2.85983zm-0.000141732 4.54288c0,-0.0220039 -0.0178386,-0.0398425 -0.0398425,-0.0398425 -0.0220039,0 -0.0398425,0.0178386 -0.0398425,0.0398425l0.000129921 0.143697c0,0.0220039 0.0178386,0.0398425 0.0398425,0.0398425 0.0220039,0 0.0398425,-0.0178386 0.0398425,-0.0398425l-0.000129921 -0.143697z"></path><path class="fil0" d="M0.966079 3.16359c-0.0220906,0 -0.04,0.0179094 -0.04,0.04 0,0.0220906 0.0179094,0.04 0.04,0.04l0.81772 0 2.27817 0c0.0220906,0 0.04,-0.0179094 0.04,-0.04 0,-0.0220906 -0.0179094,-0.04 -0.04,-0.04l-2.27817 0 -0.81772 0zm3.86969 0c-0.0220906,0 -0.04,0.0179094 -0.04,0.04 0,0.0220906 0.0179094,0.04 0.04,0.04l0.830819 0c0.0220906,0 0.04,-0.0179094 0.04,-0.04 0,-0.0220906 -0.0179094,-0.04 -0.04,-0.04l-0.830819 0z"></path><path class="fil0" d="M3.31633 0.813331c0.383957,0 0.73015,0.265264 0.980858,0.695165 0.247134,0.423768 0.402134,1.00945 0.407917,1.65755l0.00015748 0c0.00019685,0.0220906 -0.0175512,0.0401614 -0.0396417,0.0403583 -0.00273622,2.3622e-005 -0.00540945,-0.000228346 -0.00799606,-0.000728346 -0.0342008,-0.00521654 -0.0685827,-0.00917323 -0.103067,-0.0117992 -0.0344921,-0.00262992 -0.0697362,-0.00397244 -0.105689,-0.00397244 -0.378795,0 -0.721728,0.153535 -0.969953,0.40176 -0.248228,0.248228 -0.401764,0.591161 -0.401764,0.969953 0,0.182268 0.0355118,0.356134 0.0999646,0.515067 0.0670276,0.165272 0.165264,0.314461 0.287335,0.440224l-0.0285945 0.027811 0.0287008 -0.0278583c0.0153819,0.0158504 0.0150079,0.0411772 -0.00084252,0.0565591 -0.00654331,0.00635039 -0.0147047,0.0100118 -0.0231102,0.0110118 -0.0201063,0.00304724 -0.0405945,0.00538189 -0.0614331,0.00697244 -0.0212087,0.00161811 -0.0421772,0.00244094 -0.0628425,0.00244094 -0.767252,0 -1.38923,-1.07016 -1.38923,-2.39026 0,-0.656067 0.153051,-1.2507 0.400492,-1.68172 0.251307,-0.437768 0.60076,-0.708531 0.98874,-0.708531zm0.911795 0.735165c-0.236283,-0.405169 -0.558354,-0.655165 -0.911795,-0.655165 -0.357165,0 -0.682354,0.255358 -0.919362,0.668217 -0.240878,0.419591 -0.38987,1.00009 -0.38987,1.64204 0,1.27592 0.586165,2.31026 1.30923,2.31026 0.0122795,0 0.0243661,-0.000283465 0.0362598,-0.000850394 -0.104154,-0.119886 -0.188961,-0.256945 -0.249535,-0.406311 -0.0682795,-0.16837 -0.105902,-0.352374 -0.105902,-0.545067 0,-0.400874 0.162496,-0.763803 0.425205,-1.02651 0.262709,-0.262709 0.625638,-0.425201 1.02651,-0.425201 0.0371693,0 0.0744016,0.00144882 0.111626,0.0042874 0.0216299,0.00164961 0.0430433,0.00375984 0.0642283,0.00631102 -0.0123898,-0.615346 -0.161783,-1.16936 -0.396598,-1.57201z"></path><path class="fil0" d="M5.70659 3.20359c0,0.0831378 -0.0114567,0.165016 -0.0334409,0.245067 -0.0223858,0.0815118 -0.0556299,0.160543 -0.0987441,0.236528l9.44882e-005 5.51181e-005c-0.0109016,0.0192087 -0.0353189,0.0259488 -0.0545276,0.0150472 -0.00543701,-0.00308661 -0.00987795,-0.00725591 -0.0131969,-0.0120827 -0.127811,-0.15463 -0.288949,-0.280807 -0.472445,-0.367531 -0.177421,-0.0838622 -0.375886,-0.130764 -0.585457,-0.130764 -0.378795,0 -0.721728,0.153535 -0.969953,0.40176 -0.248228,0.248228 -0.401764,0.591161 -0.401764,0.969953 0,0.0135197 5.90551e-005,0.0219252 0.00015748,0.0264488 0.000177165,0.00795669 0.00046063,0.0168425 0.000822835,0.0263701l0.000133858 -3.93701e-006c0.000838583,0.0220748 -0.016378,0.0406535 -0.0384528,0.0414921 -0.00229921,8.66142e-005 -0.00456299,-1.9685e-005 -0.00677165,-0.000311024 -0.592917,-0.0426693 -1.1196,-0.217744 -1.49733,-0.475193 -0.379287,-0.258508 -0.609638,-0.60052 -0.609638,-0.976835 0,-0.40776 0.270472,-0.775323 0.707748,-1.03995 0.431209,-0.260957 1.02612,-0.422366 1.68251,-0.422366 0.656386,0 1.2513,0.161409 1.68251,0.422366 0.437276,0.264626 0.707748,0.632189 0.707748,1.03995zm-0.110315 0.22413c0.0199291,-0.0725669 0.030315,-0.147433 0.030315,-0.22413 0,-0.377764 -0.255665,-0.72137 -0.669,-0.971508 -0.419406,-0.253815 -0.999638,-0.410807 -1.64126,-0.410807 -0.641618,0 -1.22185,0.156992 -1.64126,0.410807 -0.413335,0.250138 -0.669,0.593744 -0.669,0.971508 0,0.348102 0.217126,0.667232 0.574638,0.910898 0.357736,0.243823 0.854831,0.411602 1.41657,0.458224 -8.26772e-005,-0.0049252 -0.000129921,-0.0086811 -0.000129921,-0.0110906 0,-0.400874 0.162496,-0.763803 0.425205,-1.02651 0.262709,-0.262709 0.625638,-0.425201 1.02651,-0.425201 0.221476,0 0.4315,0.0497008 0.61952,0.138575 0.177063,0.083685 0.33452,0.202209 0.463543,0.34672 0.0271142,-0.0546102 0.0486969,-0.110524 0.0643386,-0.167484z"></path><path class="fil0" d="M4.44887 3.10991c0.400866,0 0.763799,0.162492 1.02651,0.425201 0.262705,0.262709 0.425201,0.625638 0.425201,1.02651 0,0.400874 -0.162492,0.763803 -0.425201,1.02651 -0.262709,0.262709 -0.625634,0.425201 -1.02651,0.425201 -0.400874,0 -0.763803,-0.162492 -1.02651,-0.425201 -0.262709,-0.262709 -0.425201,-0.625638 -0.425201,-1.02651 0,-0.400874 0.162496,-0.763803 0.425201,-1.02651 0.262709,-0.262709 0.625638,-0.425201 1.02651,-0.425201zm0.969949 0.48176c-0.248224,-0.248224 -0.591157,-0.40176 -0.969949,-0.40176 -0.378795,0 -0.721728,0.153535 -0.969953,0.40176 -0.248224,0.248228 -0.40176,0.591161 -0.40176,0.969953 0,0.378795 0.153535,0.721728 0.40176,0.969953 0.248224,0.248224 0.591157,0.40176 0.969953,0.40176 0.378791,0 0.721724,-0.153535 0.969949,-0.40176 0.248224,-0.248224 0.40176,-0.591157 0.40176,-0.969953 0,-0.378791 -0.153535,-0.721724 -0.40176,-0.969953z"></path><polygon class="fil0" points="4.24685,4.50847 4.24685,5.06566 4.16685,5.06566 4.16685,4.50847 "></polygon><polygon class="fil0" points="4.48458,4.18827 4.48458,5.40489 4.40458,5.40489 4.40458,4.18827 "></polygon><polygon class="fil0" points="5.49034,4.30353 5.29863,4.30353 5.2256,4.54418 5.21697,4.57262 5.18748,4.57262 4.9615,4.57262 4.9615,4.49262 5.15798,4.49262 5.23101,4.25197 5.23964,4.22353 5.26914,4.22353 5.49034,4.22353 "></polygon><polygon class="fil0" points="5.49034,5.37515 5.26914,5.37515 5.23964,5.37515 5.23101,5.34671 5.15798,5.10606 4.9615,5.10606 4.9615,5.02606 5.18748,5.02606 5.21697,5.02606 5.2256,5.0545 5.29863,5.29515 5.49034,5.29515 "></polygon><polygon class="fil0" points="5.53537,4.83934 4.96127,4.83934 4.96127,4.75934 5.53537,4.75934 "></polygon><path class="fil0" d="M4.34714 4.111l0.217394 0c0.120146,0 0.229339,0.049126 0.308476,0.12826 0.0791378,0.0791378 0.12826,0.188339 0.12826,0.308476l0 0.460413c0,0.120146 -0.049122,0.229339 -0.12826,0.308476 -0.0791378,0.0791378 -0.188331,0.12826 -0.308476,0.12826l-0.217394 0c-0.120138,0 -0.229339,-0.049122 -0.308476,-0.12826 -0.0791339,-0.0791378 -0.12826,-0.188331 -0.12826,-0.308476l0 -0.460413c0,-0.120142 0.049126,-0.229339 0.12826,-0.308476 0.0791378,-0.0791339 0.188335,-0.12826 0.308476,-0.12826zm0.217394 0.08l-0.217394 0c-0.098063,0 -0.187244,0.0401457 -0.251917,0.104819 -0.0646732,0.0646732 -0.104819,0.153854 -0.104819,0.251917l0 0.460413c0,0.098063 0.0401457,0.187244 0.104819,0.251917 0.0646732,0.0646732 0.153854,0.104819 0.251917,0.104819l0.217394 0c0.098063,0 0.187244,-0.0401457 0.251917,-0.104819 0.0646732,-0.0646732 0.104819,-0.153854 0.104819,-0.251917l0 -0.460413c0,-0.098063 -0.0401457,-0.187244 -0.104819,-0.251917 -0.0646732,-0.0646732 -0.153854,-0.104819 -0.251917,-0.104819z"></path><path class="fil0" d="M4.18469 4.16743c-0.000610236,-0.00587402 -0.00109055,-0.0118937 -0.00140551,-0.0180118 -0.000377953,-0.00729921 -0.000574803,-0.0133543 -0.000574803,-0.0180669 0,-0.0832598 0.0297795,-0.159024 0.0779291,-0.214201 0.049378,-0.0565945 0.117945,-0.0916024 0.193988,-0.0916024l0.00015748 0.00015748 0.00201181 7.87402e-006 0.000153543 0c0.075063,0.000728346 0.143039,0.0354528 0.19202,0.0912244 0.0478543,0.0544921 0.0775945,0.129201 0.0775945,0.211461l-0.00015748 0.00015748 -1.5748e-005 0.00295276 0 0.000153543c-7.08661e-005,0.00731102 -0.000271654,0.0136063 -0.000582677,0.0189055 -0.000374016,0.00633465 -0.000897638,0.0125591 -0.00155906,0.0186378l-0.079378 -0.00844094c0.00053937,-0.00494882 0.00096063,-0.00992126 0.00125197,-0.0148819 0.000338583,-0.00574803 0.000543307,-0.0106732 0.000582677,-0.014689l0 -0.000153543 1.5748e-005 -0.00264173 -0.00015748 0c0,-0.0623937 -0.0220748,-0.118512 -0.0575945,-0.158957 -0.0343976,-0.0391654 -0.0813976,-0.0635472 -0.132642,-0.0640433l-0.00170079 -7.87402e-006 0 0.00015748c-0.0520394,0 -0.0994331,0.0245 -0.133988,0.0641063 -0.0357913,0.0410157 -0.0579291,0.0981614 -0.0579291,0.161697 0,0.00605512 9.05512e-005,0.0107047 0.000259843,0.0140039 0.00023622,0.00461024 0.000614173,0.00927559 0.00109843,0.0139488l-0.079378 0.00812598z"></path><polygon class="fil0" points="4.13693,3.69851 4.29228,3.96759 4.22322,4.00728 4.06787,3.73819 "></polygon><polygon class="fil0" points="4.84141,3.73819 4.68606,4.00728 4.617,3.96759 4.77235,3.69851 "></polygon><polygon class="fil0" points="3.4074,4.22353 3.62861,4.22353 3.6581,4.22353 3.66673,4.25197 3.73976,4.49262 3.93624,4.49262 3.93624,4.57262 3.71027,4.57262 3.68077,4.57262 3.67214,4.54418 3.59911,4.30353 3.4074,4.30353 "></polygon><polygon class="fil0" points="3.4074,5.29515 3.59911,5.29515 3.67214,5.0545 3.68077,5.02606 3.71027,5.02606 3.93624,5.02606 3.93624,5.10606 3.73976,5.10606 3.66673,5.34671 3.6581,5.37515 3.62861,5.37515 3.4074,5.37515 "></polygon><polygon class="fil0" points="3.36238,4.75934 3.93648,4.75934 3.93648,4.83934 3.36238,4.83934 "></polygon><polygon class="fil0" points="4.43072,3.99475 4.43072,4.03578 4.35072,4.03578 4.35072,3.99475 "></polygon><polygon class="fil0" points="4.55856,3.99475 4.55856,4.03578 4.47856,4.03578 4.47856,3.99475 "></polygon><polygon class="fil0" points="4.72974,4.43418 4.72974,4.94679 4.64974,4.94679 4.64974,4.43418 "></polygon></g><rect class="fil1" width="6.82666" height="6.82666"></rect></svg></g></g></svg>