<svg height='100px' width='100px'  fill="rgb(235, 235, 235)" xmlns="http://www.w3.org/2000/svg" xmlns:xlink="http://www.w3.org/1999/xlink" version="1.1" x="0px" y="0px" viewBox="0 0 100 100" style="enable-background:new 0 0 100 100;" xml:space="preserve"><path d="M31.2,26.9c-1.2-1.2-3.1-1.2-4.2,0c-4.1,4.1-6.4,9.6-6.4,15.5c0,5.8,2.3,11.3,6.4,15.5c0.6,0.6,1.4,0.9,2.1,0.9  s1.5-0.3,2.1-0.9c1.2-1.2,1.2-3.1,0-4.2c-3-3-4.7-7-4.7-11.2s1.7-8.2,4.7-11.2C32.3,30,32.3,28.1,31.2,26.9z"></path><path d="M88,83.8L66.6,62.3c2-2.5,3.7-5.2,4.9-8.1c1.5-3.8,2.3-7.7,2.3-11.8s-0.8-8-2.3-11.8c-1.6-3.9-3.9-7.4-6.9-10.4  c-3-3-6.5-5.3-10.4-6.9c-3.8-1.5-7.7-2.3-11.8-2.3s-8,0.8-11.8,2.3c-3.9,1.6-7.4,3.9-10.4,6.9s-5.3,6.5-6.9,10.4  c-1.5,3.8-2.3,7.7-2.3,11.8s0.8,8,2.3,11.8c1.6,3.9,3.9,7.4,6.9,10.4s6.5,5.3,10.4,6.9c3.8,1.5,7.7,2.3,11.8,2.3s8-0.8,11.8-2.3  c3-1.2,5.7-2.8,8.1-4.9L83.8,88c0.6,0.6,1.4,0.9,2.1,0.9c0.8,0,1.5-0.3,2.1-0.9C89.2,86.9,89.2,85,88,83.8z M42.4,67.7  c-6.8,0-13.1-2.6-17.9-7.4c-9.9-9.9-9.9-25.9,0-35.8c4.9-4.9,11.4-7.4,17.9-7.4c6.5,0,13,2.5,17.9,7.4c9.9,9.9,9.9,25.9,0,35.8  C55.5,65.1,49.2,67.7,42.4,67.7z"></path></svg>
