<svg xmlns="http://www.w3.org/2000/svg" xmlns:xlink="http://www.w3.org/1999/xlink" width="100" height="100" viewBox="0 0 100 100"><g><g transform="translate(50 50) scale(0.69 0.69) rotate(0) translate(-50 -50)" style="fill:#000000"><svg fill="#000000" xmlns="http://www.w3.org/2000/svg" viewBox="0 0 100 100" x="0px" y="0px"><title>Artboard 4</title><path d="M35.59,21.76a6.74,6.74,0,0,0-2.06,9L45.85,52a2.28,2.28,0,0,0,2.6,1.05h0a2.28,2.28,0,0,0,1.65-2.27l-.84-24.6a6.74,6.74,0,0,0-6.81-6.51A10.48,10.48,0,0,0,43,15.57c-.41-4.52-4.16-7.79-4.32-7.92a1,1,0,0,0-1.64.9s.48,3.39.85,7.49c0,.34.06.7.09,1l-.48-.93c-1.85-3.67-3.23-6.77-3.24-6.8a1,1,0,0,0-1.87.11c-.06.2-1.51,5,.53,9A10.52,10.52,0,0,0,35.59,21.76Zm9.72.84a4.72,4.72,0,0,1,2,3.68l.07,2.16-3.58,1a1,1,0,1,0,.55,1.92l3.09-.89.7,20.38a.28.28,0,0,1-.52.15l-5-8.73,2.61-.75a1,1,0,1,0-.55-1.92l-2.88.83a1,1,0,0,0-.19.1L39.44,37l2.13-.61A1,1,0,1,0,41,34.42l-2.61.75-2.58-4.46,1.89-.54a1,1,0,1,0-.55-1.92l-2.28.65a4.74,4.74,0,0,1,3.18-6.11l3.14-.9a4.78,4.78,0,0,1,1.32-.19A4.72,4.72,0,0,1,45.31,22.61ZM41,15.75a9.07,9.07,0,0,1-.78,4.34h0c-.09-1.45-.21-2.88-.33-4.25-.14-1.57-.3-3-.44-4.25A9.22,9.22,0,0,1,41,15.75ZM35.68,17c.62,1.23,1.28,2.5,2,3.78h0a9.07,9.07,0,0,1-3-3.27,9.22,9.22,0,0,1-.87-4.34C34.33,14.31,35,15.64,35.68,17Z"></path><path d="M24.34,29.12a56,56,0,0,0,4.2,7.1l.68,1a1,1,0,0,0,1.64-1.14l-.68-1a54.08,54.08,0,0,1-3.75-6.24c.84-1.27,4.21-6.79,2.75-12.1h0c-1.63-5.92-8.57-9-8.86-9.13A1,1,0,0,0,19.11,8c-.19.26-4.57,6.46-2.94,12.38C17.52,25.23,22.5,28.18,24.34,29.12ZM20.28,9.83c1.73.92,5.89,3.49,7,7.45h0c1,3.58-.77,7.48-1.87,9.42a54,54,0,0,1-3.24-9.18l-.29-1.15a1,1,0,0,0-1.94.49L20.21,18a56,56,0,0,0,2.64,7.84c-1.85-1.33-4-3.38-4.75-6.06C17,15.85,19.27,11.5,20.28,9.83Z"></path><path d="M16.92,47.51a2.85,2.85,0,0,1-5-.49,1,1,0,0,0-1.85.76,4.85,4.85,0,0,0,8.52.83,1,1,0,1,0-1.67-1.11Z"></path><path d="M32.88,51.43a3.84,3.84,0,1,0,3.84-3.84A3.85,3.85,0,0,0,32.88,51.43Zm5.68,0a1.84,1.84,0,1,1-1.84-1.84A1.84,1.84,0,0,1,38.56,51.43Z"></path><path d="M82.21,25.77a3.84,3.84,0,1,0-3.84-3.84A3.85,3.85,0,0,0,82.21,25.77Zm0-5.68a1.84,1.84,0,1,1-1.84,1.84A1.84,1.84,0,0,1,82.21,20.08Z"></path><path d="M53.95,19.12a3.84,3.84,0,1,0-3.84-3.84A3.85,3.85,0,0,0,53.95,19.12Zm0-5.68a1.84,1.84,0,1,1-1.84,1.84A1.84,1.84,0,0,1,53.95,13.44Z"></path><path d="M11.13,32.38a3.84,3.84,0,1,0-3.84-3.84A3.85,3.85,0,0,0,11.13,32.38Zm0-5.68a1.84,1.84,0,1,1-1.84,1.84A1.84,1.84,0,0,1,11.13,26.7Z"></path><path d="M24.55,69.16a1,1,0,0,0-1.74,1q.47.83,1,1.62a1,1,0,0,0,1.67-1.11Q25,69.93,24.55,69.16Z"></path><path d="M36.24,80c-.65-.33-1.3-.69-1.93-1.06s-1.49-.94-2.19-1.44a27.93,27.93,0,0,1-3.39-2.89l-.38-.37a7.06,7.06,0,0,1-.62-.67,1,1,0,0,0-1.53,1.29,8.68,8.68,0,0,0,.76.82l.35.35a29.93,29.93,0,0,0,3.64,3.1c.75.54,1.53,1.06,2.34,1.54s1.35.78,2,1.13a1,1,0,1,0,.9-1.78Z"></path><path d="M93.46,24.22a2.73,2.73,0,0,0-4.15.78l-2.9,5.28a7.16,7.16,0,0,0-3.94-.34,7.66,7.66,0,0,0-3.82,2.19l-4.3,4.39A63.75,63.75,0,0,1,59.06,48l-4.69,2.53A16.3,16.3,0,0,0,47.21,58c-.15.33-.27.68-.4,1H30.36l.06,0a1,1,0,0,0,.5-1.19L27.64,47.24a4.85,4.85,0,1,0-3.14-9.08c-.08,0-.14.1-.22.14a6.25,6.25,0,0,0-.28-.66,6.17,6.17,0,0,0-11.68,2.43,6.18,6.18,0,0,0-6.63,9.47,6.18,6.18,0,1,0,11,5.68L19.53,59H15a1,1,0,0,0-1,1c0,18.25,14.39,31,35,31S84,78.25,84,60a1,1,0,0,0-1-1H81.88l9.18-18.05a7.49,7.49,0,0,0-.33-7.17l3.37-6.16A2.74,2.74,0,0,0,93.46,24.22ZM17.13,52.54h0a1,1,0,0,0-.7-.46,1,1,0,0,0-1.12.86A4.19,4.19,0,1,1,7.71,50s0,0,0-.07a1.38,1.38,0,0,0,.13-.37,1,1,0,0,0-.21-.73l0,0a4.19,4.19,0,0,1,5.2-6.4,1,1,0,0,0,.53.11h0l.21,0a1,1,0,0,0,.76-1.19,4.19,4.19,0,1,1,8.27-1.17,1,1,0,0,0,.38.71l0,0a1,1,0,0,0,.16.08l.13.07a1,1,0,0,0,1.11-.31A2.85,2.85,0,1,1,28,45a2.86,2.86,0,0,1-1.58.29,1,1,0,0,0-1.1.89,1,1,0,0,0,.11.54h0l3.37,10.81-1.92,1-3.6-7.14a1,1,0,1,0-1.79.9L24.83,59H22ZM49,89h0c-16.95,0-29.12-8.59-32.22-22H81.22C78.12,80.41,65.95,89,49,89ZM81.6,65H16.4A31.31,31.31,0,0,1,16,61H82A31.32,31.32,0,0,1,81.6,65ZM49,59c0-.06,0-.13.07-.19a14.29,14.29,0,0,1,6.28-6.49L60,49.79A65.77,65.77,0,0,0,75.78,37.92l1.44-1.47,1.7.16a2.51,2.51,0,0,1,2,1.52,4.5,4.5,0,0,0,3.22,2.67l.16,0A2.51,2.51,0,0,1,86,42.22l1,2.18v0L79.64,59ZM92.35,26.66,88.7,33.32a.94.94,0,0,0,0,.14,1,1,0,0,0-.06.2,2.32,2.32,0,0,0,0,.38,1,1,0,0,0,.08.2.94.94,0,0,0,.06.13,5.58,5.58,0,0,1,.52,5.69l-1.06,2.09-.35-.76a4.52,4.52,0,0,0-3.15-2.52l-.16,0a2.5,2.5,0,0,1-1.79-1.48,4.53,4.53,0,0,0-3.61-2.73H79l1.05-1.08a5.67,5.67,0,0,1,2.81-1.64,5.49,5.49,0,0,1,3.55.54,1,1,0,0,0,.16,0,1,1,0,0,0,.19,0,1,1,0,0,0,.19,0,.59.59,0,0,0,.35-.12,1,1,0,0,0,.16-.1,1,1,0,0,0,.13-.15,1,1,0,0,0,.11-.13l3.32-6a.73.73,0,0,1,1.11-.21A.74.74,0,0,1,92.35,26.66Z"></path><path d="M75.38,41.31c-1.53,1.35-3.15,2.63-4.81,3.83a1,1,0,1,0,1.17,1.62c1.71-1.23,3.38-2.56,5-3.95a1,1,0,1,0-1.32-1.5Z"></path><path d="M63.58,49.51,58.88,52A17.07,17.07,0,0,0,54,55.92a1,1,0,1,0,1.51,1.31,15.09,15.09,0,0,1,4.3-3.42l4.69-2.53a1,1,0,0,0-.95-1.76Z"></path><path d="M62,40.84a1,1,0,0,0,1.29.29c1.16-.63,11.32-6.3,12.52-11.61a7.48,7.48,0,0,0-1.67-6.94,10.2,10.2,0,0,0-3.19-2.28,9.29,9.29,0,0,0,4.83-3.14h0C78,14,77.13,9.64,77.1,9.46A1,1,0,0,0,76,8.66a11.92,11.92,0,0,0-2.18.47,15.14,15.14,0,0,0-2.28-5.44,1,1,0,0,0-1.3-.29c-.2.11-5,2.83-6,7.42-.72,3.19.58,6.34,1.49,8a11.3,11.3,0,0,0-5.64.59A7.48,7.48,0,0,0,55.61,25C54.42,30.3,61.18,39.78,62,40.84ZM74.11,16h0a7.93,7.93,0,0,1-4.57,2.61,7.89,7.89,0,0,1,1.15-5.14,7.94,7.94,0,0,1,4.57-2.61A7.89,7.89,0,0,1,74.11,16ZM66.2,11.26c.61-2.7,3-4.69,4.23-5.59a12.66,12.66,0,0,1,1.5,4.24,8.09,8.09,0,0,0-2.86,2.35,9.34,9.34,0,0,0-1.57,5.64C66.75,16.47,65.63,13.82,66.2,11.26ZM57.56,25.43a5.49,5.49,0,0,1,3.3-4.15A8.2,8.2,0,0,1,64,20.72a14.11,14.11,0,0,1,3.08.37,10.49,10.49,0,0,1,5.53,2.83,5.49,5.49,0,0,1,1.2,5.16C73,32.54,66.38,37,63.05,38.94,60.88,35.78,56.79,28.89,57.56,25.43Z"></path><path d="M63.21,32.55c-1.16-2.6-1.62-4.67-1.32-6a5.91,5.91,0,0,1,1.17-2.5,1,1,0,1,0-1.54-1.28,7.87,7.87,0,0,0-1.58,3.34c-.4,1.77.09,4.21,1.45,7.25a1,1,0,0,0,1.83-.82Z"></path></svg></g></g></svg>